<svg width="196" height="38" viewBox="0 0 196 38" fill="none" xmlns="http://www.w3.org/2000/svg">
<path d="M31.8452 19.216C31.8452 20.912 31.6292 22.528 31.1972 24.064C30.7652 25.584 30.1492 27.008 29.3492 28.336C28.5492 29.648 27.5892 30.84 26.4692 31.912C25.3652 32.984 24.1332 33.896 22.7732 34.648C21.4292 35.4 19.9732 35.984 18.4052 36.4C16.8372 36.8 15.2132 37 13.5332 37H1.70119C1.41319 37 1.15719 36.936 0.933188 36.808C0.709188 36.68 0.597188 36.408 0.597188 35.992V2.464C0.597188 2.128 0.685188 1.856 0.861188 1.648C1.05319 1.44 1.33319 1.336 1.70119 1.336H13.5332C15.2132 1.336 16.8292 1.544 18.3812 1.96C19.9492 2.376 21.4052 2.968 22.7492 3.736C24.1092 4.504 25.3492 5.424 26.4692 6.496C27.5892 7.568 28.5412 8.768 29.3252 10.096C30.1252 11.424 30.7412 12.856 31.1732 14.392C31.6212 15.928 31.8452 17.536 31.8452 19.216ZM9.88519 9.952V28.408H11.9012C12.2692 28.408 12.6292 28.4 12.9812 28.384C13.3332 28.352 13.6852 28.32 14.0372 28.288C15.2372 28.192 16.3572 27.904 17.3972 27.424C18.4372 26.928 19.3412 26.288 20.1092 25.504C20.8932 24.704 21.5012 23.768 21.9332 22.696C22.3812 21.624 22.6052 20.456 22.6052 19.192C22.6052 17.848 22.3492 16.616 21.8372 15.496C21.3412 14.36 20.6612 13.384 19.7972 12.568C18.9332 11.736 17.9172 11.096 16.7492 10.648C15.5972 10.184 14.3652 9.952 13.0532 9.952H9.88519ZM47.5187 2.296C47.5347 2.2 47.5827 2.096 47.6627 1.984C47.7587 1.872 47.8707 1.768 47.9987 1.672C48.1267 1.576 48.2627 1.504 48.4067 1.456C48.5507 1.392 48.6867 1.36 48.8147 1.36H54.9587C55.2307 1.36 55.4627 1.448 55.6547 1.624C55.8467 1.784 55.9907 1.928 56.0867 2.056L56.6867 3.424L69.2867 35.92C69.4147 36.24 69.3907 36.504 69.2147 36.712C69.0387 36.904 68.7347 37 68.3027 37H61.4147C61.0467 37 60.7587 36.936 60.5507 36.808C60.3587 36.664 60.2067 36.432 60.0947 36.112C59.7747 35.296 59.4627 34.488 59.1587 33.688C58.8547 32.872 58.5507 32.056 58.2467 31.24H45.5027C45.1987 32.056 44.8867 32.872 44.5667 33.688C44.2627 34.488 43.9587 35.296 43.6547 36.112C43.4467 36.704 43.0387 37 42.4307 37H35.3507C35.0467 37 34.7907 36.92 34.5827 36.76C34.3907 36.6 34.3587 36.36 34.4867 36.04L47.5187 2.296ZM51.8867 12.568C51.5827 13.384 51.2707 14.264 50.9507 15.208C50.6467 16.152 50.3427 17.104 50.0387 18.064C49.7347 19.024 49.4227 19.976 49.1027 20.92C48.7987 21.848 48.4947 22.72 48.1907 23.536H55.5587L51.8867 12.568ZM76.5647 2.416C76.5647 2.128 76.6527 1.88 76.8287 1.672C77.0047 1.464 77.2687 1.36 77.6207 1.36H85.4687C85.6927 1.36 85.9247 1.416 86.1647 1.528C86.4047 1.64 86.6127 1.832 86.7887 2.104C88.8207 5.384 90.8367 8.616 92.8367 11.8C94.8367 14.984 96.8607 18.216 98.9087 21.496V2.272C98.9727 1.984 99.1007 1.76 99.2927 1.6C99.4847 1.44 99.7087 1.36 99.9647 1.36H106.805C107.141 1.36 107.421 1.456 107.645 1.648C107.869 1.824 107.981 2.08 107.981 2.416V36.064C107.981 36.384 107.885 36.624 107.693 36.784C107.501 36.928 107.237 37 106.901 37H99.2447C99.0367 37 98.8527 36.928 98.6927 36.784C98.5327 36.64 98.3647 36.448 98.1887 36.208C96.0607 32.688 93.9567 29.208 91.8767 25.768C89.7967 22.328 87.6847 18.848 85.5407 15.328V35.944C85.5407 36.296 85.4607 36.56 85.3007 36.736C85.1407 36.912 84.8527 37 84.4367 37H77.6207C77.2527 37 76.9807 36.904 76.8047 36.712C76.6447 36.504 76.5647 36.256 76.5647 35.968V2.416ZM131.277 14.512L137.085 2.104C137.181 1.912 137.261 1.776 137.325 1.696C137.389 1.6 137.453 1.536 137.517 1.504C137.581 1.456 137.645 1.432 137.709 1.432C137.789 1.416 137.877 1.392 137.973 1.36H147.213C147.325 1.36 147.413 1.4 147.477 1.48C147.557 1.544 147.597 1.624 147.597 1.72C147.597 1.896 147.485 2.096 147.261 2.32L135.885 22.456V35.872C135.885 36.624 135.517 37 134.781 37H127.581C127.261 37 127.013 36.904 126.837 36.712C126.661 36.504 126.573 36.224 126.573 35.872V22.408L115.221 2.32C115.013 2.112 114.909 1.912 114.909 1.72C114.909 1.624 114.941 1.544 115.005 1.48C115.069 1.4 115.157 1.36 115.269 1.36H124.509C124.621 1.392 124.709 1.416 124.773 1.432C124.837 1.432 124.901 1.456 124.965 1.504C125.029 1.536 125.093 1.6 125.157 1.696C125.221 1.776 125.309 1.912 125.421 2.104L131.277 14.512ZM153.553 2.392C153.553 2.072 153.641 1.816 153.817 1.624C153.993 1.432 154.257 1.336 154.609 1.336H160.417C160.689 1.336 160.937 1.432 161.161 1.624C161.401 1.816 161.521 2.072 161.521 2.392V7.576C161.521 8.264 161.497 8.944 161.449 9.616C161.353 10.864 160.961 12.016 160.273 13.072C159.585 14.112 158.617 14.992 157.369 15.712C157.353 15.728 157.289 15.752 157.177 15.784C157.081 15.816 156.969 15.848 156.841 15.88C156.729 15.912 156.617 15.944 156.505 15.976C156.393 15.992 156.321 16 156.289 16C156.161 16 156.057 15.968 155.977 15.904C155.897 15.84 155.809 15.76 155.713 15.664L154.801 14.968C154.529 14.776 154.369 14.616 154.321 14.488C154.273 14.344 154.249 14.208 154.249 14.08C154.249 13.904 154.353 13.704 154.561 13.48C154.785 13.256 155.025 12.992 155.281 12.688C155.553 12.384 155.793 12.04 156.001 11.656C156.225 11.272 156.337 10.832 156.337 10.336V9.28C156.337 8.992 156.193 8.824 155.905 8.776H154.537C154.217 8.776 153.969 8.68 153.793 8.488C153.633 8.296 153.553 8.04 153.553 7.72V2.392ZM174.735 25.504C175.007 25.728 175.351 26.032 175.767 26.416C176.199 26.784 176.687 27.152 177.231 27.52C178.047 28.064 178.855 28.488 179.655 28.792C180.455 29.096 181.295 29.248 182.175 29.248C182.991 29.248 183.671 29.16 184.215 28.984C184.775 28.792 185.215 28.544 185.535 28.24C185.855 27.936 186.079 27.584 186.207 27.184C186.351 26.784 186.423 26.36 186.423 25.912C186.423 25.416 186.231 24.976 185.847 24.592C185.479 24.192 185.023 23.84 184.479 23.536C183.935 23.232 183.367 22.976 182.775 22.768C182.183 22.544 181.671 22.36 181.239 22.216C179.319 21.544 177.639 20.824 176.199 20.056C174.759 19.272 173.559 18.408 172.599 17.464C171.639 16.504 170.919 15.456 170.439 14.32C169.959 13.168 169.719 11.888 169.719 10.48C169.719 8.992 170.015 7.64 170.607 6.424C171.215 5.208 172.071 4.168 173.175 3.304C174.295 2.44 175.639 1.776 177.207 1.312C178.775 0.831998 180.527 0.591998 182.463 0.591998C183.919 0.591998 185.311 0.759998 186.639 1.096C187.983 1.416 189.303 1.936 190.599 2.656C191.143 2.976 191.655 3.312 192.135 3.664C192.631 4 193.063 4.328 193.431 4.648C193.799 4.968 194.087 5.272 194.295 5.56C194.519 5.848 194.631 6.096 194.631 6.304C194.631 6.512 194.575 6.704 194.463 6.88C194.367 7.056 194.215 7.256 194.007 7.48L190.335 11.392C190.063 11.664 189.791 11.8 189.519 11.8C189.295 11.8 189.087 11.736 188.895 11.608C188.719 11.48 188.519 11.32 188.295 11.128L188.079 10.936C187.759 10.664 187.399 10.384 186.999 10.096C186.615 9.808 186.199 9.552 185.751 9.328C185.303 9.088 184.831 8.896 184.335 8.752C183.839 8.592 183.335 8.512 182.823 8.512C182.295 8.512 181.799 8.56 181.335 8.656C180.871 8.736 180.463 8.872 180.111 9.064C179.759 9.256 179.479 9.512 179.271 9.832C179.063 10.136 178.959 10.512 178.959 10.96C178.959 11.408 179.071 11.8 179.295 12.136C179.519 12.456 179.855 12.76 180.303 13.048C180.751 13.32 181.303 13.584 181.959 13.84C182.631 14.08 183.407 14.344 184.287 14.632C185.983 15.192 187.543 15.784 188.967 16.408C190.407 17.016 191.647 17.744 192.687 18.592C193.727 19.424 194.535 20.424 195.111 21.592C195.703 22.76 195.999 24.176 195.999 25.84C195.999 27.6 195.639 29.2 194.919 30.64C194.199 32.064 193.207 33.28 191.943 34.288C190.695 35.296 189.223 36.08 187.527 36.64C185.831 37.184 184.007 37.456 182.055 37.456C180.215 37.456 178.407 37.128 176.631 36.472C174.855 35.816 173.199 34.936 171.663 33.832C171.023 33.368 170.479 32.912 170.031 32.464C169.599 32.016 169.255 31.656 168.999 31.384L168.927 31.312C168.911 31.28 168.895 31.264 168.879 31.264C168.863 31.248 168.847 31.232 168.831 31.216C168.815 31.184 168.799 31.168 168.783 31.168C168.767 31.152 168.751 31.136 168.735 31.12C168.367 30.72 168.183 30.4 168.183 30.16C168.183 29.888 168.367 29.584 168.735 29.248L172.887 25.288C173.223 25.048 173.495 24.928 173.703 24.928C173.847 24.928 173.999 24.976 174.159 25.072C174.319 25.168 174.511 25.312 174.735 25.504Z" fill="#232B37"/>
</svg>
