<svg width="248" height="13" viewBox="0 0 248 13" fill="none" xmlns="http://www.w3.org/2000/svg">
<path d="M3.944 0.672C7.8 0.672 10.04 2.96 10.04 6.416C10.04 8.688 8.664 12 4.008 12H0.408V0.672H3.944ZM3.72 11.04C6.872 11.04 8.984 9.376 8.984 6.416C8.984 3.248 6.872 1.632 3.672 1.632H1.464V11.04H3.72ZM16.6674 12H15.6114V0.672H18.6674C21.2914 0.672 22.6194 1.712 22.6194 3.648C22.6194 5.248 21.7394 6.288 19.7234 6.56L23.0194 12H21.8194L18.6354 6.624H16.6674V12ZM16.6674 5.664H18.9874C20.6194 5.664 21.5634 4.864 21.5634 3.648C21.5634 2.448 20.6674 1.632 18.9554 1.632H16.6674V5.664ZM26.4446 0.672H27.7086L31.1326 6.048L34.6366 0.672H35.8206L31.6606 7.12V12H30.6046V7.12L26.4446 0.672ZM42.3041 12L39.0081 0.672H40.0961L42.9121 10.704H42.9441L45.8081 0.672H47.1521L50.0161 10.704H50.0481L52.8641 0.672H53.9521L50.6561 11.984L50.6401 12H49.3601L46.4961 1.92H46.4641L43.6001 12H42.3041ZM58.1402 12H57.0362L61.9802 0.672H63.0682L67.8362 12H66.6522L65.4202 8.992H59.4202L58.1402 12ZM62.4762 1.824L59.8362 8.032H65.0362L62.4762 1.824ZM73.7174 0.672V11.04H78.9974V12H72.6614V0.672H73.7174ZM84.9174 0.672V11.04H90.1974V12H83.8614V0.672H84.9174ZM102.05 12H100.946L105.89 0.672H106.978L111.746 12H110.562L109.33 8.992H103.33L102.05 12ZM106.386 1.824L103.746 8.032H108.946L106.386 1.824ZM117.627 12H116.571V0.672H117.931L124.827 10.592H124.859V0.672H125.915V12H124.555L117.659 2.08H117.627V12ZM135.616 0.672C139.472 0.672 141.712 2.96 141.712 6.416C141.712 8.688 140.336 12 135.68 12H132.08V0.672H135.616ZM135.392 11.04C138.544 11.04 140.656 9.376 140.656 6.416C140.656 3.248 138.544 1.632 135.344 1.632H133.136V11.04H135.392ZM155.695 12H154.639V0.672H157.871C160.143 0.672 161.551 1.744 161.551 3.664C161.551 5.536 160.095 6.624 158.207 6.624H155.695V12ZM155.695 1.632V5.664H158.143C159.503 5.664 160.495 4.976 160.495 3.664C160.495 2.336 159.407 1.632 158.095 1.632H155.695ZM165.472 12H164.368L169.312 0.672H170.4L175.168 12H173.984L172.752 8.992H166.752L165.472 12ZM169.808 1.824L167.168 8.032H172.368L169.808 1.824ZM181.049 0.672V12H179.993V0.672H181.049ZM188.405 12H187.349V0.672H188.709L195.605 10.592H195.637V0.672H196.693V12H195.333L188.437 2.08H188.405V12ZM201.642 1.632V0.672H210.442V1.632H206.57V12H205.514V1.632H201.642ZM216.445 0.672V12H215.389V0.672H216.445ZM223.802 12H222.746V0.672H224.106L231.002 10.592H231.034V0.672H232.09V12H230.73L223.834 2.08H223.802V12ZM243.519 0.384C245.199 0.384 246.559 0.896 247.599 1.952L246.831 2.752C246.111 1.872 244.655 1.344 243.519 1.344C240.607 1.344 238.719 3.504 238.719 6.336C238.719 9.184 240.607 11.328 243.535 11.328C244.735 11.328 245.807 11.184 246.687 10.656V6.848H243.967V5.888H247.743V11.264C246.415 12.016 244.991 12.288 243.519 12.288C240.031 12.288 237.663 9.728 237.663 6.336C237.663 2.928 240.047 0.384 243.519 0.384Z" fill="#8591A2"/>
</svg>
