<svg width="255" height="36" viewBox="0 0 255 36" fill="none" xmlns="http://www.w3.org/2000/svg">
<path d="M31.9968 18.216C31.9968 19.912 31.7808 21.528 31.3488 23.064C30.9168 24.584 30.3008 26.008 29.5008 27.336C28.7008 28.648 27.7408 29.84 26.6208 30.912C25.5168 31.984 24.2848 32.896 22.9248 33.648C21.5808 34.4 20.1248 34.984 18.5568 35.4C16.9888 35.8 15.3648 36 13.6848 36H1.85275C1.56475 36 1.30875 35.936 1.08475 35.808C0.860753 35.68 0.748753 35.408 0.748753 34.992V1.464C0.748753 1.128 0.836753 0.855999 1.01275 0.647999C1.20475 0.439999 1.48475 0.335999 1.85275 0.335999H13.6848C15.3648 0.335999 16.9808 0.543999 18.5328 0.959999C20.1008 1.376 21.5568 1.968 22.9008 2.736C24.2608 3.504 25.5008 4.424 26.6208 5.496C27.7408 6.568 28.6928 7.768 29.4768 9.096C30.2768 10.424 30.8928 11.856 31.3248 13.392C31.7728 14.928 31.9968 16.536 31.9968 18.216ZM10.0368 8.952V27.408H12.0528C12.4208 27.408 12.7808 27.4 13.1328 27.384C13.4848 27.352 13.8368 27.32 14.1888 27.288C15.3888 27.192 16.5088 26.904 17.5488 26.424C18.5888 25.928 19.4928 25.288 20.2608 24.504C21.0448 23.704 21.6528 22.768 22.0848 21.696C22.5328 20.624 22.7568 19.456 22.7568 18.192C22.7568 16.848 22.5008 15.616 21.9888 14.496C21.4928 13.36 20.8128 12.384 19.9488 11.568C19.0848 10.736 18.0688 10.096 16.9008 9.648C15.7488 9.184 14.5168 8.952 13.2048 8.952H10.0368ZM40.7058 1.464C40.7058 1.128 40.7938 0.863998 40.9698 0.671997C41.1458 0.463999 41.4098 0.36 41.7618 0.36H57.2658C58.9138 0.36 60.4578 0.671999 61.8978 1.296C63.3378 1.904 64.5938 2.736 65.6658 3.792C66.7378 4.848 67.5778 6.088 68.1858 7.512C68.8098 8.92 69.1218 10.424 69.1218 12.024C69.1218 13.112 68.9698 14.152 68.6658 15.144C68.3778 16.12 67.9698 17.04 67.4418 17.904C66.9138 18.752 66.2818 19.528 65.5458 20.232C64.8258 20.92 64.0338 21.512 63.1698 22.008L69.3378 33.624C69.4498 33.848 69.5938 34.112 69.7698 34.416C69.9458 34.72 70.0338 34.984 70.0338 35.208C70.0338 35.464 69.9458 35.664 69.7698 35.808C69.6098 35.936 69.3858 36 69.0978 36H60.8658C60.5938 36 60.3458 35.92 60.1218 35.76C59.9138 35.6 59.7778 35.384 59.7138 35.112L53.8818 24.144H49.9938V34.968C49.9938 35.656 49.6258 36 48.8898 36H41.7618C41.4418 36 41.1858 35.92 40.9938 35.76C40.8018 35.584 40.7058 35.32 40.7058 34.968V1.464ZM59.4978 12.12C59.4978 11.64 59.4098 11.16 59.2338 10.68C59.0578 10.2 58.8098 9.76 58.4898 9.36C58.1698 8.96 57.7858 8.624 57.3378 8.352C56.8898 8.08 56.3938 7.904 55.8498 7.824C55.4018 7.792 54.9778 7.768 54.5778 7.752C54.1938 7.72 53.7698 7.704 53.3058 7.704H49.9938V16.512H54.4098C54.6978 16.512 54.9538 16.504 55.1778 16.488C55.4018 16.472 55.6498 16.448 55.9218 16.416C56.4818 16.352 56.9858 16.192 57.4338 15.936C57.8818 15.664 58.2578 15.336 58.5618 14.952C58.8658 14.552 59.0978 14.112 59.2578 13.632C59.4178 13.136 59.4978 12.632 59.4978 12.12ZM89.8878 13.512L95.6958 1.104C95.7918 0.911998 95.8718 0.775998 95.9358 0.695998C95.9998 0.599998 96.0638 0.535997 96.1278 0.503998C96.1918 0.455997 96.2558 0.431997 96.3198 0.431997C96.3998 0.415998 96.4878 0.391999 96.5838 0.36H105.824C105.936 0.36 106.024 0.4 106.088 0.48C106.168 0.543999 106.208 0.623999 106.208 0.719999C106.208 0.895998 106.096 1.096 105.872 1.32L94.4958 21.456V34.872C94.4958 35.624 94.1278 36 93.3918 36H86.1918C85.8718 36 85.6238 35.904 85.4478 35.712C85.2718 35.504 85.1838 35.224 85.1838 34.872V21.408L73.8318 1.32C73.6238 1.112 73.5198 0.911999 73.5198 0.719999C73.5198 0.623999 73.5518 0.543999 73.6158 0.48C73.6798 0.4 73.7678 0.36 73.8798 0.36H83.1198C83.2318 0.391999 83.3198 0.415998 83.3838 0.431997C83.4478 0.431997 83.5118 0.455997 83.5758 0.503998C83.6398 0.535997 83.7038 0.599998 83.7678 0.695998C83.8318 0.775998 83.9198 0.911998 84.0318 1.104L89.8878 13.512ZM122.892 35.496C122.732 35.224 122.58 34.944 122.436 34.656C122.292 34.368 122.164 34.08 122.052 33.792C119.988 28.352 117.932 22.96 115.884 17.616C113.836 12.272 111.78 6.88 109.716 1.44C109.716 1.36 109.7 1.288 109.668 1.224C109.652 1.16 109.644 1.096 109.644 1.032C109.644 0.584 109.94 0.36 110.532 0.36H118.26C118.868 0.36 119.284 0.664 119.508 1.272L126.852 23.136L133.644 1.272C133.868 0.664 134.307 0.36 134.964 0.36H142.764C143.132 0.36 143.388 0.431999 143.532 0.575998C143.692 0.703999 143.772 0.879998 143.772 1.104C143.772 1.232 143.764 1.32 143.748 1.368V1.44L139.476 13.68L142.692 23.112L150.468 1.272C150.692 0.664 151.132 0.36 151.788 0.36H159.348C159.716 0.36 159.972 0.431999 160.116 0.575998C160.276 0.703999 160.356 0.879998 160.356 1.104C160.356 1.232 160.348 1.32 160.332 1.368V1.44C159.244 4.256 158.132 7.064 156.996 9.864C155.86 12.664 154.716 15.464 153.564 18.264C152.428 21.064 151.292 23.872 150.156 26.688C149.036 29.488 147.94 32.288 146.868 35.088C146.804 35.264 146.66 35.464 146.436 35.688C146.212 35.896 145.94 36 145.62 36H145.548H139.74C139.388 36 139.116 35.936 138.924 35.808C138.748 35.664 138.62 35.48 138.54 35.256L134.748 25.272C134.204 26.728 133.668 28.16 133.14 29.568C132.612 30.96 132.084 32.384 131.556 33.84C131.476 34.064 131.38 34.304 131.268 34.56C131.172 34.8 131.052 35.032 130.908 35.256C130.764 35.464 130.596 35.64 130.404 35.784C130.228 35.928 130.02 36 129.78 36H129.708H123.9C123.388 36 123.052 35.832 122.892 35.496ZM172.62 1.296C172.636 1.2 172.684 1.096 172.764 0.983997C172.86 0.871998 172.972 0.767998 173.1 0.671997C173.228 0.575998 173.364 0.503999 173.508 0.455998C173.652 0.391999 173.788 0.36 173.916 0.36H180.06C180.332 0.36 180.564 0.447999 180.756 0.623998C180.948 0.783998 181.092 0.927998 181.188 1.056L181.788 2.424L194.388 34.92C194.516 35.24 194.492 35.504 194.316 35.712C194.14 35.904 193.836 36 193.404 36H186.516C186.148 36 185.86 35.936 185.652 35.808C185.46 35.664 185.308 35.432 185.196 35.112C184.876 34.296 184.564 33.488 184.26 32.688C183.956 31.872 183.652 31.056 183.348 30.24H170.604C170.3 31.056 169.988 31.872 169.668 32.688C169.364 33.488 169.06 34.296 168.756 35.112C168.548 35.704 168.14 36 167.532 36H160.452C160.148 36 159.892 35.92 159.684 35.76C159.492 35.6 159.46 35.36 159.588 35.04L172.62 1.296ZM176.988 11.568C176.684 12.384 176.372 13.264 176.052 14.208C175.748 15.152 175.444 16.104 175.14 17.064C174.836 18.024 174.524 18.976 174.204 19.92C173.9 20.848 173.596 21.72 173.292 22.536H180.66L176.988 11.568ZM200.73 1.392C200.73 1.104 200.826 0.855999 201.018 0.647999C201.21 0.439999 201.474 0.335999 201.81 0.335999H208.914C209.186 0.335999 209.434 0.431998 209.658 0.623998C209.882 0.815999 210.002 1.072 210.018 1.392V27.504H223.218C223.506 27.504 223.754 27.6 223.962 27.792C224.17 27.984 224.274 28.248 224.274 28.584V34.896C224.274 35.168 224.178 35.416 223.986 35.64C223.81 35.864 223.554 35.984 223.218 36H201.786C201.082 36 200.73 35.648 200.73 34.944V1.392ZM231.443 1.392C231.443 1.104 231.539 0.855999 231.731 0.647999C231.923 0.439999 232.187 0.335999 232.523 0.335999H239.627C239.899 0.335999 240.147 0.431998 240.371 0.623998C240.595 0.815999 240.715 1.072 240.731 1.392V27.504H253.931C254.219 27.504 254.467 27.6 254.675 27.792C254.883 27.984 254.987 28.248 254.987 28.584V34.896C254.987 35.168 254.891 35.416 254.699 35.64C254.523 35.864 254.267 35.984 253.931 36H232.499C231.795 36 231.443 35.648 231.443 34.944V1.392Z" fill="#232B37"/>
</svg>
