<svg width="73" height="78" viewBox="0 0 73 78" fill="none" xmlns="http://www.w3.org/2000/svg">
<path fill-rule="evenodd" clip-rule="evenodd" d="M29.8778 11.2522L0.940886 40.189C-0.313627 41.4436 -0.313629 43.4775 0.940883 44.732C2.19539 45.9866 4.22936 45.9866 5.48387 44.732L15.9525 34.2634C16.7707 33.4452 18.0972 33.4452 18.9153 34.2634C19.7335 35.0816 19.7335 36.4081 18.9153 37.2262L7.85413 48.2874C5.29056 50.851 5.29056 55.0074 7.85413 57.5709C10.4177 60.1345 14.5741 60.1345 17.1376 57.5709L22.1744 52.5341C22.938 51.7705 24.1761 51.7705 24.9397 52.5341C25.7033 53.2977 25.7033 54.5358 24.9397 55.2994L21.7794 58.4598C20.034 60.2052 20.034 63.035 21.7794 64.7805C23.5248 66.5259 26.3547 66.5259 28.1001 64.7805L40.9389 51.9416C41.7026 51.178 42.9406 51.178 43.7043 51.9416C44.4679 52.7052 44.4679 53.9433 43.7043 54.7069L27.1125 71.2987C25.6943 72.7168 25.6943 75.0161 27.1125 76.4342C28.5306 77.8524 30.8299 77.8524 32.248 76.4342L47.3584 61.3238C56.6854 51.9968 56.6854 36.8747 47.3584 27.5477L31.0629 11.2522C30.7356 10.9249 30.205 10.9249 29.8778 11.2522ZM29.8832 28.5922C30.9878 28.5922 31.8832 29.4876 31.8832 30.5922V33.4599C31.8832 34.5644 30.9878 35.4599 29.8832 35.4599H26.6196C25.515 35.4599 24.6196 34.5644 24.6196 33.4599V30.5922C24.6196 29.4876 25.515 28.5922 26.6196 28.5922H29.8832ZM24.6196 38.7362C24.6196 37.6316 25.515 36.7362 26.6196 36.7362H29.8832C30.9878 36.7362 31.8832 37.6316 31.8832 38.7362V41.9988C31.8832 43.1034 30.9878 43.9988 29.8832 43.9988H26.6196C25.515 43.9988 24.6196 43.1034 24.6196 41.9988V38.7362ZM35.1595 43.9988C34.0549 43.9988 33.1595 43.1034 33.1595 41.9988V38.7362C33.1595 37.6316 34.0549 36.7362 35.1595 36.7362H38.0262C39.1308 36.7362 40.0262 37.6316 40.0262 38.7362V41.9988C40.0262 43.1034 39.1308 43.9988 38.0262 43.9988H35.1595ZM38.0262 35.4599C39.1308 35.4599 40.0262 34.5644 40.0262 33.4599V30.5922C40.0262 29.4876 39.1308 28.5922 38.0262 28.5922H35.1595C34.0549 28.5922 33.1595 29.4876 33.1595 30.5922V33.4599C33.1595 34.5644 34.0549 35.4599 35.1595 35.4599H38.0262Z" fill="#EA2424"/>
<path fill-rule="evenodd" clip-rule="evenodd" d="M48.6545 17.2738L58.3725 6.17023C60.3413 3.9208 62.9308 1.68651 65.8086 2.49529C66.7676 2.76482 67.7488 3.28091 68.6387 4.17078C69.333 4.86512 69.8133 5.62857 70.1346 6.40181C71.5014 9.69167 68.9008 12.9421 66.1816 15.2437L55.5275 24.2615C53.5764 25.913 50.685 25.793 48.8775 23.9854C47.0479 22.1558 46.9503 19.2209 48.6545 17.2738ZM64.3991 6.00401C65.1508 5.25231 66.3185 5.2013 67.0073 5.89006C67.696 6.57883 67.645 7.74656 66.8933 8.49826C66.1416 9.24996 64.9739 9.30097 64.2851 8.61221C63.5963 7.92344 63.6474 6.75571 64.3991 6.00401Z" fill="#EA2424"/>
</svg>
